# xmcd
#
# Track frame offsets:
#	150
#	12184
#	24831
#	39649
#	51887
#	67533
#	84269
#	98797
#	108447
#	123730
#
# Disc length: 1841 seconds
#
# Revision: 0
# Processed by: cddbd v1.5.1PL0 Copyright (c) Steve Scherf et al.
# Submitted via: dBpowerAMP V4.0
#
DISCID=6f072f0a
DTITLE=Delta Moon - Delta Moon
DYEAR=1900
DGENRE=Blues-Rock, Jam Rock
TTITLE0=Delta Moon - mansfield road
TTITLE1=Delta Moon - look way down that lonesome road
TTITLE2=Delta Moon - nothing you can tell a fool
TTITLE3=Delta Moon - can't be satisfied
TTITLE4=Delta Moon - poplar grove
TTITLE5=Delta Moon - preaching blues
TTITLE6=Delta Moon - keep your lamp trimmed and burning
TTITLE7=Delta Moon - rayleen
TTITLE8=Delta Moon - good morning little schoolgirl
TTITLE9=Delta Moon - fixing to die
EXTD=
EXTT0=
EXTT1=
EXTT2=
EXTT3=
EXTT4=
EXTT5=
EXTT6=
EXTT7=
EXTT8=
EXTT9=
PLAYORDER=
